<mxfile host="app.diagrams.net" modified="2024-07-01T02:30:03.082Z" agent="Mozilla/5.0 (Windows NT 10.0; Win64; x64) AppleWebKit/537.36 (KHTML, like Gecko) Chrome/126.0.0.0 Safari/537.36" etag="c9R55rdX2xWqbT_b47Vd" version="24.6.4" type="device">
  <diagram id="C5RBs43oDa-KdzZeNtuy" name="Page-1">
    <mxGraphModel dx="1049" dy="552" grid="1" gridSize="10" guides="1" tooltips="1" connect="1" arrows="1" fold="1" page="1" pageScale="1" pageWidth="827" pageHeight="1169" math="0" shadow="0">
      <root>
        <mxCell id="WIyWlLk6GJQsqaUBKTNV-0" />
        <mxCell id="WIyWlLk6GJQsqaUBKTNV-1" parent="WIyWlLk6GJQsqaUBKTNV-0" />
        <mxCell id="-Q0osp29YIrvLorOT4F8-25" style="edgeStyle=orthogonalEdgeStyle;rounded=0;orthogonalLoop=1;jettySize=auto;html=1;exitX=0.5;exitY=1;exitDx=0;exitDy=0;entryX=0.5;entryY=0;entryDx=0;entryDy=0;endArrow=none;endFill=0;" edge="1" parent="WIyWlLk6GJQsqaUBKTNV-1" source="-Q0osp29YIrvLorOT4F8-0" target="-Q0osp29YIrvLorOT4F8-8">
          <mxGeometry relative="1" as="geometry">
            <Array as="points">
              <mxPoint x="440" y="330" />
              <mxPoint x="280" y="330" />
            </Array>
          </mxGeometry>
        </mxCell>
        <mxCell id="-Q0osp29YIrvLorOT4F8-27" style="edgeStyle=orthogonalEdgeStyle;rounded=0;orthogonalLoop=1;jettySize=auto;html=1;endArrow=none;endFill=0;" edge="1" parent="WIyWlLk6GJQsqaUBKTNV-1" source="-Q0osp29YIrvLorOT4F8-0" target="-Q0osp29YIrvLorOT4F8-24">
          <mxGeometry relative="1" as="geometry">
            <Array as="points">
              <mxPoint x="440" y="330" />
              <mxPoint x="510" y="330" />
            </Array>
          </mxGeometry>
        </mxCell>
        <mxCell id="-Q0osp29YIrvLorOT4F8-32" style="edgeStyle=orthogonalEdgeStyle;rounded=0;orthogonalLoop=1;jettySize=auto;html=1;endArrow=none;endFill=0;" edge="1" parent="WIyWlLk6GJQsqaUBKTNV-1" source="-Q0osp29YIrvLorOT4F8-0" target="-Q0osp29YIrvLorOT4F8-31">
          <mxGeometry relative="1" as="geometry">
            <Array as="points">
              <mxPoint x="440" y="330" />
              <mxPoint x="660" y="330" />
            </Array>
          </mxGeometry>
        </mxCell>
        <mxCell id="-Q0osp29YIrvLorOT4F8-34" style="edgeStyle=orthogonalEdgeStyle;rounded=0;orthogonalLoop=1;jettySize=auto;html=1;exitX=0.5;exitY=1;exitDx=0;exitDy=0;entryX=0.5;entryY=0;entryDx=0;entryDy=0;endArrow=none;endFill=0;" edge="1" parent="WIyWlLk6GJQsqaUBKTNV-1" source="-Q0osp29YIrvLorOT4F8-0" target="-Q0osp29YIrvLorOT4F8-33">
          <mxGeometry relative="1" as="geometry">
            <Array as="points">
              <mxPoint x="440" y="330" />
              <mxPoint x="810" y="330" />
            </Array>
          </mxGeometry>
        </mxCell>
        <mxCell id="-Q0osp29YIrvLorOT4F8-0" value="Register user" style="rounded=1;whiteSpace=wrap;html=1;" vertex="1" parent="WIyWlLk6GJQsqaUBKTNV-1">
          <mxGeometry x="380" y="250" width="120" height="60" as="geometry" />
        </mxCell>
        <mxCell id="-Q0osp29YIrvLorOT4F8-5" style="edgeStyle=orthogonalEdgeStyle;rounded=0;orthogonalLoop=1;jettySize=auto;html=1;entryX=0.5;entryY=0;entryDx=0;entryDy=0;endArrow=none;endFill=0;" edge="1" parent="WIyWlLk6GJQsqaUBKTNV-1" source="-Q0osp29YIrvLorOT4F8-1" target="-Q0osp29YIrvLorOT4F8-4">
          <mxGeometry relative="1" as="geometry" />
        </mxCell>
        <mxCell id="-Q0osp29YIrvLorOT4F8-1" value="Validate user info" style="rounded=1;whiteSpace=wrap;html=1;" vertex="1" parent="WIyWlLk6GJQsqaUBKTNV-1">
          <mxGeometry x="220" y="360" width="120" height="60" as="geometry" />
        </mxCell>
        <mxCell id="-Q0osp29YIrvLorOT4F8-4" value="record user information" style="rounded=1;whiteSpace=wrap;html=1;" vertex="1" parent="WIyWlLk6GJQsqaUBKTNV-1">
          <mxGeometry x="220" y="460" width="120" height="60" as="geometry" />
        </mxCell>
        <mxCell id="-Q0osp29YIrvLorOT4F8-8" value="get user information" style="rounded=1;whiteSpace=wrap;html=1;" vertex="1" parent="WIyWlLk6GJQsqaUBKTNV-1">
          <mxGeometry x="220" y="360" width="120" height="60" as="geometry" />
        </mxCell>
        <mxCell id="-Q0osp29YIrvLorOT4F8-19" style="edgeStyle=orthogonalEdgeStyle;rounded=0;orthogonalLoop=1;jettySize=auto;html=1;entryX=0.5;entryY=0;entryDx=0;entryDy=0;endArrow=none;endFill=0;" edge="1" parent="WIyWlLk6GJQsqaUBKTNV-1" source="-Q0osp29YIrvLorOT4F8-21" target="-Q0osp29YIrvLorOT4F8-22">
          <mxGeometry relative="1" as="geometry" />
        </mxCell>
        <mxCell id="-Q0osp29YIrvLorOT4F8-20" style="edgeStyle=orthogonalEdgeStyle;rounded=0;orthogonalLoop=1;jettySize=auto;html=1;endArrow=none;endFill=0;" edge="1" parent="WIyWlLk6GJQsqaUBKTNV-1" source="-Q0osp29YIrvLorOT4F8-21" target="-Q0osp29YIrvLorOT4F8-23">
          <mxGeometry relative="1" as="geometry" />
        </mxCell>
        <mxCell id="-Q0osp29YIrvLorOT4F8-21" value="Validate user info" style="rounded=1;whiteSpace=wrap;html=1;" vertex="1" parent="WIyWlLk6GJQsqaUBKTNV-1">
          <mxGeometry x="450" y="360" width="120" height="60" as="geometry" />
        </mxCell>
        <mxCell id="-Q0osp29YIrvLorOT4F8-22" value="validate Age" style="rounded=1;whiteSpace=wrap;html=1;" vertex="1" parent="WIyWlLk6GJQsqaUBKTNV-1">
          <mxGeometry x="370" y="460" width="120" height="60" as="geometry" />
        </mxCell>
        <mxCell id="-Q0osp29YIrvLorOT4F8-23" value="validate login&lt;div&gt;Info&lt;/div&gt;" style="rounded=1;whiteSpace=wrap;html=1;" vertex="1" parent="WIyWlLk6GJQsqaUBKTNV-1">
          <mxGeometry x="530" y="460" width="120" height="60" as="geometry" />
        </mxCell>
        <mxCell id="-Q0osp29YIrvLorOT4F8-24" value="validate user info" style="rounded=1;whiteSpace=wrap;html=1;" vertex="1" parent="WIyWlLk6GJQsqaUBKTNV-1">
          <mxGeometry x="450" y="360" width="120" height="60" as="geometry" />
        </mxCell>
        <mxCell id="-Q0osp29YIrvLorOT4F8-31" value="hash password" style="rounded=1;whiteSpace=wrap;html=1;" vertex="1" parent="WIyWlLk6GJQsqaUBKTNV-1">
          <mxGeometry x="600" y="360" width="120" height="60" as="geometry" />
        </mxCell>
        <mxCell id="-Q0osp29YIrvLorOT4F8-33" value="insert into database" style="rounded=1;whiteSpace=wrap;html=1;" vertex="1" parent="WIyWlLk6GJQsqaUBKTNV-1">
          <mxGeometry x="750" y="360" width="120" height="60" as="geometry" />
        </mxCell>
      </root>
    </mxGraphModel>
  </diagram>
</mxfile>
